<svg width="150" height="49" viewBox="0 0 150 49" fill="none" xmlns="http://www.w3.org/2000/svg">
<path d="M147.546 25.0421C147.501 25.6584 147.509 26.2488 147.427 26.827C147.298 27.7456 147.111 28.6566 146.944 29.57C146.729 30.7461 146.267 31.8451 145.819 32.945C145.551 33.6034 145.267 34.2659 144.897 34.8716C144.265 35.9059 143.607 36.931 142.875 37.8978C141.968 39.0955 140.924 40.1754 139.749 41.1393C138.669 42.0259 137.535 42.8343 136.317 43.5108C134.703 44.4073 132.997 45.1175 131.183 45.5332C130.28 45.7403 129.367 45.9536 128.446 46.028C126.995 46.1453 125.534 46.186 124.077 46.1917C119.768 46.2088 115.46 46.1892 111.151 46.1956C110.747 46.1962 110.506 46.0293 110.389 45.6777C109.888 44.1759 109.386 42.6741 108.902 41.1672C107.935 38.163 106.983 35.1542 106.018 32.1495C105.366 30.1192 104.696 28.0943 104.043 26.0642C103.389 24.0312 102.748 21.994 102.097 19.96C101.01 16.5627 99.9181 13.1672 98.8321 9.76966C98.1743 7.71216 97.5198 5.65367 96.8726 3.59294C96.5969 2.71517 96.6413 2.66639 97.5595 2.66616C104.686 2.66437 111.813 2.66181 118.94 2.661C121.648 2.66069 124.356 2.64388 127.063 2.67927C127.827 2.68925 128.596 2.81806 129.349 2.96249C130.405 3.16515 131.476 3.35505 132.493 3.6894C134.803 4.4491 136.937 5.55453 138.882 7.02203C139.956 7.83265 140.955 8.717 141.856 9.69828C142.804 10.7314 143.634 11.8595 144.367 13.0596C145.268 14.5334 145.981 16.0825 146.513 17.7159C146.913 18.9449 147.254 20.1908 147.358 21.4812C147.452 22.6555 147.494 23.8339 147.546 25.0421ZM134.912 33.6163C135.225 33.2829 135.575 32.9757 135.845 32.6115C136.916 31.1696 137.835 29.6453 138.248 27.8799C138.402 27.2177 138.573 26.5508 138.632 25.8771C138.699 25.1217 138.632 24.3559 138.651 23.5954C138.676 22.642 138.464 21.7275 138.203 20.8244C137.426 18.1432 135.932 15.9265 133.703 14.196C131.326 12.3496 128.61 11.504 125.594 11.5269C123.776 11.5406 121.958 11.5294 120.14 11.5294C119.382 11.5294 119.309 11.5978 119.312 12.3308C119.32 14.705 119.336 17.0792 119.338 19.4535C119.341 22.4043 119.332 25.3551 119.33 28.3059C119.329 30.0092 119.333 31.7125 119.33 33.4157C119.328 34.5195 119.315 35.6232 119.313 36.727C119.313 37.1628 119.446 37.3283 119.788 37.3251C122.103 37.3038 124.418 37.2621 126.733 37.2627C127.644 37.263 128.515 37.0785 129.377 36.8421C131.495 36.2613 133.314 35.1698 134.912 33.6163Z" fill="white"/>
<path d="M45.8293 40.8012C45.3367 39.9344 44.7889 39.1167 44.4113 38.229C44.0434 37.3641 43.8144 36.4359 43.592 35.5196C43.4507 34.9376 43.405 34.3283 43.3677 33.7282C43.3342 33.1886 43.5471 33.0039 44.0966 33.0036C46.5623 33.0021 49.028 33.0026 51.4936 33.0032C51.986 33.0033 52.1703 33.1496 52.2189 33.6319C52.3843 35.2713 53.7273 36.8992 55.526 37.2355C55.8091 37.2884 56.1006 37.3222 56.3883 37.3227C60.0255 37.3284 63.6627 37.3298 67.2999 37.3241C68.2028 37.3227 69.0479 37.1118 69.7737 36.5505C70.7169 35.8211 71.2988 34.8926 71.4925 33.7097C71.7136 32.3596 71.2796 31.2097 70.4213 30.2115C69.8329 29.5272 69.0128 29.1543 68.1214 28.9741C67.8056 28.9102 67.4745 28.8993 67.1504 28.8987C63.6716 28.8926 60.1926 28.9165 56.7142 28.8803C55.4325 28.8669 54.1547 28.7111 52.9071 28.3726C51.1519 27.8964 49.6008 27.0599 48.2014 25.9196C46.5669 24.5877 45.3289 22.969 44.4622 21.0699C43.9033 19.8451 43.5913 18.5538 43.4338 17.2254C43.2985 16.0845 43.3256 14.9478 43.4938 13.8076C43.7445 12.1095 44.2985 10.5244 45.1791 9.04455C45.9693 7.71647 46.9998 6.59975 48.1741 5.58975C49.1949 4.7118 50.3694 4.0934 51.5876 3.5623C52.5083 3.1609 53.4895 2.89156 54.5058 2.81307C55.314 2.75065 56.1241 2.67638 56.9337 2.67273C60.3636 2.65724 63.7939 2.68891 67.2235 2.65658C68.9413 2.64038 70.585 2.95248 72.1744 3.54708C73.3146 3.9736 74.3264 4.63306 75.2962 5.3631C77.0228 6.66289 78.2887 8.31218 79.2089 10.232C79.7182 11.2943 80.0202 12.4202 80.1984 13.5785C80.2686 14.0349 80.3237 14.4939 80.3719 14.9531C80.4403 15.6054 80.213 15.8499 79.5499 15.8525C78.964 15.8547 78.378 15.8529 77.7921 15.8529C76.0466 15.8529 74.3011 15.8529 72.5556 15.8529C71.6939 15.8529 71.65 15.7893 71.4811 14.9732C71.1071 13.1669 69.9658 12.0388 68.2226 11.6166C67.933 11.5464 67.6234 11.5333 67.323 11.5329C63.6001 11.5275 59.8769 11.5027 56.1544 11.5444C54.9082 11.5584 53.8862 12.1528 53.0962 13.1179C52.3517 14.0276 52.1193 15.0802 52.2291 16.2059C52.3826 17.7803 53.4349 19.227 55.1189 19.7522C55.9452 20.0099 56.7902 19.9666 57.6314 19.9732C61.2312 20.0013 64.8322 19.9742 68.4305 20.0584C69.4128 20.0814 70.4063 20.3585 71.361 20.6326C72.6814 21.0116 73.8779 21.6668 74.9822 22.4823C76.0547 23.2743 77.0034 24.1809 77.7856 25.2561C78.6994 26.5123 79.453 27.8429 79.8553 29.35C80.0955 30.2498 80.2706 31.1541 80.3593 32.0849C80.5643 34.2379 80.1673 36.3017 79.3679 38.2746C78.834 39.5921 78.0447 40.7945 77.043 41.8488C76.2638 42.669 75.4517 43.4455 74.4923 44.0571C73.0242 44.9931 71.4644 45.7264 69.7129 45.9675C68.8904 46.0808 68.0573 46.175 67.2284 46.1799C63.4812 46.2023 59.7337 46.2027 55.9864 46.1848C53.736 46.1741 51.6836 45.4892 49.7435 44.3815C48.4742 43.6569 47.4705 42.6547 46.4695 41.6384C46.2306 41.3958 46.0539 41.0941 45.8293 40.8012Z" fill="white"/>
<path d="M39.5231 10.0539C39.5102 10.4074 39.4703 10.7292 39.484 11.0487C39.4988 11.3925 39.2718 11.4679 39.0163 11.5255C38.9235 11.5464 38.8218 11.5294 38.7241 11.5294C34.4889 11.5294 30.2536 11.5294 26.0183 11.5294C25.4805 11.5294 25.415 11.5926 25.415 12.1126C25.4149 22.7999 25.416 33.4872 25.4119 44.1745C25.4117 44.6773 25.3724 45.1805 25.3393 45.6827C25.3185 45.9978 25.086 46.1861 24.7202 46.1882C23.8903 46.193 23.0603 46.1897 22.2303 46.1897C20.5704 46.1897 18.9104 46.1846 17.2505 46.1922C16.6074 46.1952 16.643 45.981 16.5547 45.549C16.5405 45.4797 16.5527 45.4053 16.5527 45.3332C16.5527 35.4865 16.5527 25.6398 16.5527 15.7931C16.5527 14.646 16.5555 13.4989 16.5495 12.3518C16.5487 12.1877 16.4924 12.0244 16.4852 11.8597C16.4731 11.5817 16.2947 11.5293 16.0653 11.5294C15.5405 11.5295 15.0156 11.5294 14.4908 11.5294C10.7803 11.5294 7.0699 11.5294 3.35946 11.5294C2.61384 11.5294 2.4969 11.4426 2.49399 10.7305C2.48365 8.19919 2.48859 5.66776 2.49212 3.13637C2.49256 2.82537 2.64471 2.66066 2.98681 2.66292C4.23141 2.67115 5.47615 2.6724 6.72076 2.66445C8.02376 2.65613 9.32669 2.6187 10.6296 2.62081C16.8534 2.63094 23.0771 2.65293 29.3009 2.66493C32.1322 2.67039 34.9635 2.66228 37.7948 2.66085C38.2208 2.66064 38.6468 2.6667 39.0727 2.66351C39.369 2.66129 39.4813 2.80608 39.4799 3.0879C39.4751 4.03199 39.4768 4.97616 39.483 5.92025C39.492 7.28726 39.5072 8.65423 39.5231 10.0539Z" fill="white"/>
<path d="M99.2846 40.1368C99.5961 40.1757 99.7491 40.3411 99.8309 40.6012C100.324 42.168 100.822 43.733 101.319 45.2985C101.323 45.3096 101.335 45.3179 101.338 45.329C101.54 46.0512 101.432 46.1897 100.671 46.1897C94.9463 46.1897 89.222 46.1897 83.4977 46.1897C82.8692 46.1897 82.731 46.0275 82.916 45.4407C83.3194 44.1611 83.7392 42.8864 84.1551 41.6106C84.2702 41.2578 84.4076 40.9116 84.5117 40.5558C84.5991 40.2572 84.7895 40.1377 85.092 40.1356C88.2269 40.1135 91.3618 40.0771 94.4968 40.0696C96.082 40.0658 97.6674 40.1128 99.2846 40.1368Z" fill="white"/>
<path d="M95.0682 31.6338C92.9938 31.6338 90.956 31.6374 88.9183 31.6306C88.5553 31.6294 88.1918 31.5926 87.8299 31.5586C87.6204 31.5389 87.4827 31.4196 87.5246 31.1988C87.5768 30.9243 87.6444 30.651 87.7285 30.3843C88.3259 28.4914 88.9265 26.5996 89.5315 24.709C90.057 23.0668 90.5855 21.4254 91.1206 19.7862C91.3774 18.9993 91.6462 18.216 91.9264 17.4369C91.9667 17.3247 92.1015 17.2454 92.1926 17.1509C92.2658 17.248 92.3715 17.3347 92.4074 17.4437C92.8408 18.7572 93.2632 20.0741 93.6898 21.3898C94.282 23.2165 94.8818 25.041 95.466 26.8702C95.8992 28.2266 96.3164 29.5879 96.7332 30.9492C96.8553 31.348 96.7501 31.5146 96.3382 31.5587C95.9292 31.6026 95.5161 31.6103 95.0682 31.6338Z" fill="white"/>
</svg>
